<mxfile host="65bd71144e">
    <diagram id="_PkDSTH_ygtT8-cSQGUV" name="Page-1">
        <mxGraphModel dx="894" dy="462" grid="1" gridSize="10" guides="1" tooltips="1" connect="1" arrows="1" fold="1" page="1" pageScale="1" pageWidth="827" pageHeight="1169" math="0" shadow="0">
            <root>
                <mxCell id="0"/>
                <mxCell id="1" parent="0"/>
                <mxCell id="8" value="Mascota" style="swimlane;childLayout=stackLayout;resizeParent=1;resizeParentMax=0;horizontal=1;startSize=20;horizontalStack=0;" vertex="1" parent="1">
                    <mxGeometry x="270" y="40" width="190" height="260" as="geometry"/>
                </mxCell>
                <mxCell id="9" value="" style="swimlane;startSize=20;horizontal=0;" vertex="1" parent="8">
                    <mxGeometry y="20" width="190" height="120" as="geometry"/>
                </mxCell>
                <mxCell id="12" value="-Nombre mascota&lt;br&gt;&lt;div&gt;&lt;span&gt;-Tipo mascota&lt;/span&gt;&lt;/div&gt;-Raza mascota&lt;br&gt;-Edad mascota&lt;br&gt;-EstadoMatch mascota&lt;br&gt;-Nombre propietario&lt;br&gt;-Observación mascota" style="text;html=1;align=left;verticalAlign=middle;resizable=0;points=[];autosize=1;strokeColor=none;fillColor=none;" vertex="1" parent="9">
                    <mxGeometry x="20" y="10" width="140" height="100" as="geometry"/>
                </mxCell>
                <mxCell id="10" value="" style="swimlane;startSize=20;horizontal=0;" vertex="1" parent="8">
                    <mxGeometry y="140" width="190" height="120" as="geometry"/>
                </mxCell>
                <mxCell id="13" value="-DefinirNombre()&lt;br&gt;-DefinirTipo()&lt;br&gt;-DefinirRaza()&lt;br&gt;-DefinirEdad()&lt;br&gt;-DefinirEstadoMatch()&lt;br&gt;-IngresarPropietario()&lt;br&gt;-IngresarObservación()" style="text;html=1;align=left;verticalAlign=middle;resizable=0;points=[];autosize=1;strokeColor=none;fillColor=none;" vertex="1" parent="10">
                    <mxGeometry x="20" y="5" width="140" height="100" as="geometry"/>
                </mxCell>
                <mxCell id="14" value="Persona" style="swimlane;childLayout=stackLayout;resizeParent=1;resizeParentMax=0;horizontal=1;startSize=20;horizontalStack=0;" vertex="1" parent="1">
                    <mxGeometry x="40" y="40" width="190" height="260" as="geometry"/>
                </mxCell>
                <mxCell id="15" value="" style="swimlane;startSize=20;horizontal=0;" vertex="1" parent="14">
                    <mxGeometry y="20" width="190" height="120" as="geometry"/>
                </mxCell>
                <mxCell id="16" value="-Cédula&lt;br&gt;-Nombres&lt;br&gt;-Apellidos" style="text;html=1;align=left;verticalAlign=middle;resizable=0;points=[];autosize=1;strokeColor=none;fillColor=none;" vertex="1" parent="15">
                    <mxGeometry x="20" y="35" width="70" height="50" as="geometry"/>
                </mxCell>
                <mxCell id="17" value="" style="swimlane;startSize=20;horizontal=0;" vertex="1" parent="14">
                    <mxGeometry y="140" width="190" height="120" as="geometry"/>
                </mxCell>
                <mxCell id="18" value="-Registrar()&lt;br&gt;-Listar()&lt;br&gt;-CrearMatch()&lt;br&gt;" style="text;html=1;align=left;verticalAlign=middle;resizable=0;points=[];autosize=1;strokeColor=none;fillColor=none;" vertex="1" parent="17">
                    <mxGeometry x="20" y="30" width="90" height="50" as="geometry"/>
                </mxCell>
            </root>
        </mxGraphModel>
    </diagram>
</mxfile>